<!DOCTYPE svg PUBLIC "-//W3C//DTD SVG 20010904//EN" "http://www.w3.org/TR/2001/REC-SVG-20010904/DTD/svg10.dtd">
<svg version="1.0" xmlns="http://www.w3.org/2000/svg" width="285px" height="69px" viewBox="0 0 2850 690" preserveAspectRatio="xMidYMid meet">
<g id="layer101" fill="#f05882" stroke="none">
 <path d="M2254 680 c-33 -13 -37 -26 -19 -61 14 -25 21 -30 42 -26 29 5 63 -22 63 -50 0 -10 -29 -85 -64 -168 -35 -82 -60 -154 -56 -158 4 -5 31 -7 60 -5 l53 3 31 92 c17 50 33 94 36 97 3 3 18 -40 34 -95 l29 -99 53 0 c30 0 54 4 54 9 0 19 -140 391 -157 417 -29 45 -105 66 -159 44z"/>
 <path d="M320 654 c-161 -43 -288 -193 -298 -352 -5 -71 6 -92 49 -92 36 0 55 29 62 97 10 90 71 174 161 221 72 37 189 38 260 3 96 -47 158 -135 172 -242 4 -30 11 -60 17 -66 15 -20 62 -15 82 7 16 18 17 27 7 85 -41 248 -274 403 -512 339z"/>
 <path d="M1240 527 c-118 -62 -118 -242 0 -304 86 -46 195 -21 247 56 32 48 32 144 0 192 -52 77 -161 102 -247 56z m121 -77 c34 0 60 -70 43 -115 -10 -24 -60 -46 -89 -39 -31 8 -65 49 -65 78 0 43 54 92 88 80 8 -2 18 -4 23 -4z"/>
 <path d="M1613 535 c-39 -16 -53 -42 -53 -93 0 -60 48 -97 144 -108 60 -7 75 -27 32 -44 -27 -10 -60 -4 -92 17 -20 13 -24 11 -43 -13 -27 -35 -27 -38 11 -66 24 -17 50 -24 98 -26 55 -3 70 0 100 20 47 32 59 72 59 206 l1 112 -49 0 c-29 0 -51 -5 -53 -12 -3 -8 -11 -7 -28 5 -29 20 -83 21 -127 2z m141 -87 c24 -34 20 -48 -13 -48 -45 0 -81 17 -81 38 0 26 9 32 46 32 23 0 38 -7 48 -22z"/>
 <path d="M1960 528 c-43 -30 -46 -40 -17 -74 23 -26 25 -27 48 -11 39 28 122 18 86 -11 -6 -5 -36 -17 -64 -26 -29 -10 -60 -27 -68 -39 -20 -28 -19 -87 1 -116 35 -49 132 -66 199 -34 40 19 43 30 14 67 -20 25 -21 25 -51 10 -34 -17 -78 -12 -78 10 0 9 22 21 56 31 73 21 104 52 104 102 0 72 -52 113 -143 113 -40 0 -63 -6 -87 -22z"/>
 <path d="M2625 536 c-52 -22 -60 -40 -35 -76 25 -35 28 -35 58 -14 27 19 87 15 87 -6 0 -9 -20 -20 -53 -30 -88 -25 -122 -83 -87 -149 28 -56 130 -78 201 -45 46 22 48 28 21 59 -22 26 -24 27 -65 14 -37 -11 -45 -10 -58 3 -19 19 -7 30 56 47 84 24 116 79 85 145 -10 20 -30 41 -50 50 -40 19 -119 20 -160 2z"/>
 <path d="M984 527 c-2 -7 -3 -80 -2 -162 l3 -150 55 0 55 0 3 163 2 162 -55 0 c-36 0 -57 -5 -61 -13z"/>
 <path d="M309 482 c-89 -46 -148 -155 -135 -250 8 -57 52 -138 91 -168 128 -98 315 -59 387 80 111 216 -127 451 -343 338z m196 -102 c86 -53 85 -188 -2 -241 -50 -31 -132 -23 -173 16 -52 50 -62 124 -24 182 39 61 136 82 199 43z"/>
 <path d="M24 164 c-43 -42 -15 -107 47 -107 35 0 69 31 69 65 0 25 -44 68 -70 68 -11 0 -32 -11 -46 -26z"/>
 <path d="M995 160 c-38 -42 -9 -110 47 -110 35 0 68 32 68 65 0 56 -77 86 -115 45z"/>
 </g>

</svg>