<!DOCTYPE svg PUBLIC "-//W3C//DTD SVG 20010904//EN" "http://www.w3.org/TR/2001/REC-SVG-20010904/DTD/svg10.dtd">
<svg version="1.0" xmlns="http://www.w3.org/2000/svg" width="454px" height="110px" viewBox="0 0 4540 1100" preserveAspectRatio="xMidYMid meet">
<g id="layer101" fill="#ffffff" stroke="none">
 <path d="M3603 1077 c-18 -7 -40 -20 -50 -29 -16 -16 -15 -20 10 -65 l26 -48 50 3 c48 3 52 2 71 -30 11 -18 20 -43 20 -55 0 -12 -45 -129 -100 -260 -55 -131 -100 -244 -100 -250 0 -10 25 -13 93 -13 l94 0 54 159 c29 88 56 157 59 155 2 -3 25 -74 51 -157 l46 -152 78 -3 c43 -2 82 1 86 5 9 9 -191 565 -229 639 -48 95 -158 137 -259 101z"/>
 <path d="M592 1050 c-222 -31 -405 -164 -502 -365 -44 -93 -59 -153 -63 -248 -2 -64 0 -70 26 -93 69 -59 147 -4 147 104 0 125 96 283 218 361 85 54 163 73 277 69 120 -5 188 -28 278 -96 107 -82 167 -194 186 -346 6 -57 13 -73 35 -93 35 -30 67 -29 105 3 28 23 31 31 31 83 0 32 -9 92 -20 135 -47 185 -171 338 -341 419 -129 62 -252 84 -377 67z"/>
 <path d="M2040 861 c-86 -28 -154 -86 -187 -159 -25 -58 -23 -176 5 -234 66 -134 228 -193 378 -137 226 85 234 412 14 512 -49 22 -167 32 -210 18z m135 -155 c45 -19 75 -69 75 -124 0 -94 -115 -154 -198 -102 -34 21 -62 72 -62 112 0 37 34 90 71 110 41 22 68 23 114 4z"/>
 <path d="M2611 860 c-71 -17 -122 -75 -128 -147 -9 -104 67 -166 229 -185 51 -6 95 -12 96 -14 13 -10 -16 -48 -44 -60 -40 -17 -90 -7 -148 27 l-34 20 -31 -40 c-17 -21 -31 -46 -31 -55 0 -19 79 -72 130 -86 46 -13 135 -13 183 1 52 14 102 61 124 117 15 39 18 77 18 227 l0 180 -77 3 c-73 3 -78 2 -78 -18 0 -20 -1 -20 -37 4 -42 28 -119 40 -172 26z m176 -143 c11 -12 24 -37 28 -54 l7 -33 -50 0 c-61 0 -109 16 -123 41 -35 66 80 103 138 46z"/>
 <path d="M3164 854 c-22 -8 -56 -27 -74 -43 -32 -26 -34 -30 -22 -53 8 -14 24 -38 37 -54 l23 -28 50 27 c60 33 126 37 141 8 14 -26 -11 -46 -74 -62 -138 -33 -193 -103 -166 -207 31 -112 212 -168 338 -104 68 35 71 45 29 97 -21 25 -39 45 -42 45 -2 0 -21 -9 -41 -20 -65 -34 -128 -23 -121 21 2 20 13 27 64 40 135 36 186 83 186 167 0 82 -51 150 -130 172 -52 14 -149 11 -198 -6z"/>
 <path d="M4223 859 c-46 -13 -102 -48 -114 -70 -8 -16 -3 -28 22 -64 18 -25 37 -45 43 -45 6 0 29 12 51 25 66 41 157 29 139 -18 -3 -10 -41 -27 -92 -43 -99 -30 -145 -68 -155 -128 -20 -123 98 -219 249 -203 53 5 154 51 154 69 0 12 -61 98 -70 98 -3 0 -23 -9 -45 -20 -67 -34 -132 -21 -123 26 3 18 9 20 113 49 145 41 190 184 86 278 -22 20 -57 40 -78 46 -46 13 -136 13 -180 0z"/>
 <path d="M1570 590 l0 -261 88 3 87 3 0 255 0 255 -87 3 -88 3 0 -261z"/>
 <path d="M585 796 c-203 -50 -341 -252 -306 -448 24 -136 109 -250 231 -307 49 -23 67 -26 165 -26 102 0 115 2 175 31 83 39 150 106 192 192 31 62 33 74 33 167 0 92 -3 106 -32 167 -57 121 -163 203 -293 228 -66 13 -102 12 -165 -4z m150 -167 c130 -35 203 -169 161 -296 -65 -197 -353 -206 -433 -14 -19 45 -18 129 2 177 44 105 160 163 270 133z"/>
 <path d="M47 270 c-38 -30 -52 -80 -33 -123 15 -37 59 -67 96 -67 37 0 81 30 96 67 29 68 -21 143 -96 143 -22 0 -48 -8 -63 -20z"/>
 <path d="M1613 270 c-27 -11 -63 -66 -63 -96 0 -12 10 -36 23 -55 47 -70 151 -60 183 17 37 87 -52 170 -143 134z"/>
 </g>

</svg>